# xmcd
#
# Track frame offsets: 
#        150
#        11976
#        23582
#        34765
#        47278
#        60101
#        72863
#        85627
#        99346
#        111763
#        123684
#        136138
#        147080
#        159764
#        172791
#        185668
#        199089
#        210918
#        222081
#        232993
#
# Disc length: 3278 seconds
#
# Revision: 1
# Processed by: cddbd v1.5.2PL0 Copyright (c) Steve Scherf et al.
# Submitted via: ExactAudioCopy v0.99pb5
#
DISCID=f60ccc14
DTITLE=Various Artist - Western Swing - 40 Bootstompers - CD2
DYEAR=2006
DGENRE=Country
TTITLE0=Bob Wills and His Texas Playboys - Lil Liza Jane
TTITLE1=Hank Penny and His Radio Cowboys - Tobacco State Swing (1940)
TTITLE2=Adolph Hofner - Cotton Eyed Joe (1941)
TTITLE3=Al Dexter and His Troopers - Pistol Packin' Mama (1942)
TTITLE4=Johnnie Lee Wills - Milk Cow Blues (1941)
TTITLE5=Spade Cooley and HO - Shame On You (1945)
TTITLE6=Hank Penny - Steel Guitar Stomp (1945)
TTITLE7=Cliff Bruner - That's What I Like About The South (1945)
TTITLE8=Tex Williams - That's What I Like About The West (1947)
TTITLE9=Johnny Tyler - It Ain't Far To The Bar (194)
TTITLE10=Luke Wills' Rhythm Busters - Shut Up And Drink Your Beer (194
TTITLE10=7)
TTITLE11=Hank Thompson - Humpty Dumpty Heart (1947)
TTITLE12=Spade Cooley and HO - Oklahoma Stomp (1946)
TTITLE13=Tex Williams and His Western Caravan - Smoke! Smoke! Smoke! (Th
TTITLE13=at Cigarette) (1947)
TTITLE14=Bob Wills and His Texas Playboys - Faded Love (1950)
TTITLE15=Leon McAliffe - Blue Guitar Stomp (1951)
TTITLE16=Hank Penny - Wildcat Mama (1947)
TTITLE17=Spade Cooley and HO - Chew Tobacco Rag (1951)
TTITLE18=Tommy Duncan - Nancy Jane (1952)
TTITLE19=Al Dexter - Hide-Ho Boogie On A Saturday Night (1950)
EXTD=YEAR: 2006
EXTT0=
EXTT1=
EXTT2=
EXTT3=
EXTT4=
EXTT5=
EXTT6=
EXTT7=
EXTT8=
EXTT9=
EXTT10=
EXTT11=
EXTT12=
EXTT13=
EXTT14=
EXTT15=
EXTT16=
EXTT17=
EXTT18=
EXTT19=
PLAYORDER=
